<?xml version="1.0" encoding="utf-8"?>
<!-- Generator: Adobe Illustrator 18.0.0, SVG Export Plug-In . SVG Version: 6.00 Build 0)  -->
<!DOCTYPE svg PUBLIC "-//W3C//DTD SVG 1.1//EN" "http://www.w3.org/Graphics/SVG/1.1/DTD/svg11.dtd">
<svg version="1.1" id="Layer_1" xmlns="http://www.w3.org/2000/svg" xmlns:xlink="http://www.w3.org/1999/xlink" x="0px" y="0px"
	 viewBox="0 0 30 30" enable-background="new 0 0 30 30" xml:space="preserve">
<g>
	<circle fill="#757575" cx="15" cy="15" r="15"/>
	<g>
		<path fill="#D7D7D7" d="M11.2,19.3h-6V18l2.2-2.2c0.6-0.7,1.1-1.1,1.2-1.4S8.9,14,9,13.8s0.1-0.4,0.1-0.7c0-0.3-0.1-0.6-0.3-0.8
			s-0.4-0.3-0.8-0.3c-0.3,0-0.7,0.1-1,0.2s-0.6,0.4-1,0.7l-1-1.2c0.4-0.4,0.8-0.6,1-0.8s0.6-0.3,0.9-0.3s0.7-0.1,1.1-0.1
			c0.5,0,1,0.1,1.4,0.3s0.7,0.5,1,0.8s0.3,0.8,0.3,1.2c0,0.4-0.1,0.8-0.2,1.1s-0.4,0.7-0.6,1.1S9.3,16,8.6,16.6l-1.1,1v0.1h3.7V19.3
			z"/>
		<path fill="#D7D7D7" d="M16.5,19.3h-1.8v-5l0-0.8l0-0.9c-0.3,0.3-0.5,0.5-0.6,0.6l-1,0.8l-0.9-1.1l2.8-2.2h1.5V19.3z"/>
		<path fill="#D7D7D7" d="M21.2,15.7h-2.3v-1.3h2.3v-2.3h1.3v2.3h2.3v1.3h-2.3v2.3h-1.3V15.7z"/>
	</g>
</g>
</svg>
