<?xml version="1.0" encoding="utf-8"?>
<!-- Generator: Adobe Illustrator 18.0.0, SVG Export Plug-In . SVG Version: 6.00 Build 0)  -->
<!DOCTYPE svg PUBLIC "-//W3C//DTD SVG 1.1//EN" "http://www.w3.org/Graphics/SVG/1.1/DTD/svg11.dtd">
<svg version="1.1" id="Layer_1" xmlns="http://www.w3.org/2000/svg" xmlns:xlink="http://www.w3.org/1999/xlink" x="0px" y="0px"
	 viewBox="0 0 17 20" enable-background="new 0 0 17 20" xml:space="preserve">
<g>
	<path fill="#FFFFFF" d="M5.2,0C5.1,0,5,0,4.9,0.1C4.6,0.2,4.5,0.6,4.7,0.9L5.3,2C3.8,3,2.8,4.6,2.8,6.4c0,0,0,0,0,0c0,0,0,0,0,0
		c0,0,0,0,0,0v0.3C2.5,6.4,2.1,6.2,1.6,6.2C0.7,6.2,0,6.9,0,7.8v4.9c0,0.9,0.7,1.6,1.6,1.6c0.5,0,0.9-0.2,1.2-0.6v0.7
		c0,0.9,0.8,1.7,1.7,1.7h0.4v2.2c0,0.9,0.7,1.6,1.6,1.6c0.9,0,1.6-0.7,1.6-1.6v-2.2h0.7v2.2c0,0.9,0.7,1.6,1.6,1.6s1.6-0.7,1.6-1.6
		v-2.2h0.4c0.9,0,1.7-0.8,1.7-1.7v-0.7c0.3,0.3,0.7,0.6,1.2,0.6c0.9,0,1.6-0.7,1.6-1.6V7.8c0-0.9-0.7-1.6-1.6-1.6
		c-0.5,0-0.9,0.2-1.2,0.6V6.5v0c0,0,0,0,0,0c0,0,0,0,0,0c0-1.8-1-3.5-2.5-4.4l0.6-1.1c0.2-0.3,0.1-0.6-0.2-0.8C12,0,11.9,0,11.8,0
		c-0.2,0-0.4,0.1-0.5,0.3l-0.7,1.2C9.9,1.3,9.2,1.1,8.5,1.1C7.7,1.1,7,1.3,6.4,1.5L5.7,0.3C5.6,0.1,5.4,0,5.2,0L5.2,0z"/>
	<path fill="#A4C639" d="M1.6,6.6c-0.7,0-1.2,0.5-1.2,1.2v4.9c0,0.7,0.5,1.2,1.2,1.2s1.2-0.5,1.2-1.2V7.8C2.8,7.2,2.2,6.6,1.6,6.6
		L1.6,6.6z M15.4,6.6c-0.7,0-1.2,0.5-1.2,1.2v4.9c0,0.7,0.5,1.2,1.2,1.2c0.7,0,1.2-0.5,1.2-1.2V7.8C16.6,7.2,16,6.6,15.4,6.6
		L15.4,6.6z"/>
	<path fill="#A4C639" d="M6.5,12.3c-0.7,0-1.2,0.5-1.2,1.2v4.9c0,0.7,0.5,1.2,1.2,1.2c0.7,0,1.2-0.5,1.2-1.2v-4.9
		C7.7,12.8,7.2,12.3,6.5,12.3L6.5,12.3z M10.5,12.3c-0.7,0-1.2,0.5-1.2,1.2v4.9c0,0.7,0.5,1.2,1.2,1.2s1.2-0.5,1.2-1.2v-4.9
		C11.6,12.8,11.1,12.3,10.5,12.3L10.5,12.3z"/>
	<path fill="#A4C639" d="M5.2,0.4C5.2,0.4,5.2,0.4,5.2,0.4C5,0.5,5,0.6,5.1,0.7l0.8,1.5C4.3,3,3.2,4.6,3.2,6.4h10.6
		c0-1.8-1.1-3.4-2.7-4.2l0.8-1.5c0-0.1,0-0.2-0.1-0.2c0,0-0.1,0-0.1,0c-0.1,0-0.1,0-0.1,0.1L10.8,2c-0.7-0.3-1.5-0.5-2.3-0.5
		S6.9,1.7,6.2,2L5.4,0.5C5.3,0.4,5.3,0.4,5.2,0.4L5.2,0.4z M3.2,6.8v7.7c0,0.7,0.6,1.3,1.3,1.3h8c0.7,0,1.3-0.6,1.3-1.3V6.8H3.2
		L3.2,6.8z"/>
	<path fill="#FFFFFF" d="M6,3.6C5.8,3.6,5.6,3.8,5.6,4c0,0.2,0.2,0.4,0.4,0.4S6.5,4.3,6.5,4C6.5,3.8,6.3,3.6,6,3.6L6,3.6z M10.9,3.6
		c-0.2,0-0.4,0.2-0.4,0.4c0,0.2,0.2,0.4,0.4,0.4c0.2,0,0.4-0.2,0.4-0.4C11.4,3.8,11.2,3.6,10.9,3.6L10.9,3.6z"/>
</g>
</svg>
