<?xml version="1.0" encoding="utf-8"?>
<!-- Generator: Adobe Illustrator 18.0.0, SVG Export Plug-In . SVG Version: 6.00 Build 0)  -->
<!DOCTYPE svg PUBLIC "-//W3C//DTD SVG 1.1//EN" "http://www.w3.org/Graphics/SVG/1.1/DTD/svg11.dtd">
<svg version="1.1" id="Layer_1" xmlns="http://www.w3.org/2000/svg" xmlns:xlink="http://www.w3.org/1999/xlink" x="0px" y="0px"
	 viewBox="0 0 40 40" enable-background="new 0 0 40 40" xml:space="preserve">
<g>
	<circle fill="#882211" cx="20" cy="20" r="20"/>
	<path fill="#FFFFFF" d="M25.4,30H14.5C12,30,10,28,10,25.4V14.6c0-2.5,2-4.6,4.6-4.6h11c2.5,0,4.6,2,4.6,4.6v11
		C30,28,28,30,25.4,30z M14.5,12c-1.4,0-2.6,1.1-2.6,2.6v11c0,1.4,1.1,2.6,2.6,2.6h11c1.4,0,2.6-1.1,2.6-2.6v-11
		c0-1.4-1.1-2.6-2.6-2.6H14.5z M20,25.2c-2.9,0-5.2-2.3-5.2-5.2s2.3-5.2,5.2-5.2s5.2,2.3,5.2,5.2S22.8,25.2,20,25.2z M20,16.9
		c-1.8,0-3.2,1.4-3.2,3.2s1.4,3.2,3.2,3.2s3.2-1.4,3.2-3.2S21.7,16.9,20,16.9z M25.3,13.6c-0.7,0-1.3,0.6-1.3,1.3s0.6,1.3,1.3,1.3
		s1.3-0.6,1.3-1.3C26.7,14.2,26,13.6,25.3,13.6z"/>
</g>
</svg>
