<svg width="690" height="690" version="1.1" viewBox="0 0 690 690" xml:space="preserve" xmlns="http://www.w3.org/2000/svg"><defs><clipPath id="clipPath18"><path d="m0 512h512v-512h-512z"/></clipPath></defs><g transform="matrix(1.3333 0 0 -1.3333 0 690)"><g transform="translate(2.75 2.7502)"><g clip-path="url(#clipPath18)"><g transform="translate(61.496 232.39)"><path d="m0 0c-0.988 8.234-1.496 16.414-1.496 23.609 0 107.4 88.598 196 196 196 50.098 0 97-20.199 131.5-51.699l-17.301-17.601c-3.898-3.899-5.398-9.598-3.898-15 1.8-5.098 6-9 11.398-10.2 3.02-0.605 102.22-32.57 95.899-31.3 8.035-2.676 19.918 5.894 17.703 17.699-0.61 3.023-22.571 113.22-21.301 106.9-1.199 5.399-5.102 9.899-10.5 11.399-5.098 1.5-10.801 0-14.699-3.899l-14.7-14.398c-45.3 42.297-107.5 68.097-174.1 68.097-140.7 0-256-115.3-256-256v-0.597c0-8.457 0.387-14.992 0.836-19.992 0.597-6.625 5.48-12.051 12.004-13.36l30.816-6.16c10.031-2.008 19.051 6.402 17.84 16.5" fill="#78150d"/></g><g transform="translate(499.25 289.97)"><path d="m0 0-30.906 6.297c-10.043 2.047-19.125-6.371-17.891-16.516 1.07-8.754 1.547-17.265 1.547-23.754 0-107.4-88.598-196-196-196-50.098 0-97 20.2-131.5 52l17.301 17.301c3.898 3.899 5.398 9.598 3.898 15-1.801 5.102-6 9-11.398 10.199-3.02 0.61-102.22 32.571-95.899 31.301-5.101 0.899-10.203-0.601-13.5-4.199-3.601-3.301-5.101-8.699-4.203-13.5 0.61-3.02 22.574-112.21 21.305-105.9 1.195-5.402 5.098-9.902 10.496-11.398 6.262-1.57 11.488 0.328 14.699 3.898l14.403 14.399c45.296-42.301 107.5-69.102 174.4-69.102 140.7 0 256 115.3 256 256v0.903c0 6.648-0.242 13.175-0.797 19.664-0.57 6.629-5.433 12.074-11.953 13.406" fill="#78150d"/></g></g></g></g></svg>
