<?xml version="1.0" encoding="utf-8"?>
<!-- Generator: Adobe Illustrator 18.0.0, SVG Export Plug-In . SVG Version: 6.00 Build 0)  -->
<!DOCTYPE svg PUBLIC "-//W3C//DTD SVG 1.1//EN" "http://www.w3.org/Graphics/SVG/1.1/DTD/svg11.dtd">
<svg version="1.1" id="Layer_1" xmlns="http://www.w3.org/2000/svg" xmlns:xlink="http://www.w3.org/1999/xlink" x="0px" y="0px"
	 viewBox="0 0 11.3 20" enable-background="new 0 0 11.3 20" xml:space="preserve">
<g>
	<path fill="#757575" d="M9.9,0H1.5C0.7,0,0,0.7,0,1.5v17.1C0,19.3,0.7,20,1.5,20h8.4c0.8,0,1.5-0.7,1.5-1.5V1.5
		C11.3,0.7,10.7,0,9.9,0L9.9,0z M1.5,0.7h8.4c0.5,0,0.8,0.4,0.8,0.8V2h-10V1.5C0.7,1,1,0.7,1.5,0.7L1.5,0.7z M9.9,19.3H1.5
		c-0.5,0-0.8-0.4-0.8-0.8V16h10v2.5C10.7,19,10.3,19.3,9.9,19.3L9.9,19.3z"/>
	<path fill="#757575" d="M4.8,1.7h1.8C6.8,1.7,7,1.5,7,1.3S6.8,1,6.6,1H4.8C4.6,1,4.3,1.2,4.3,1.3S4.6,1.7,4.8,1.7L4.8,1.7z"/>
	<path fill="#757575" d="M5.7,18.7c-0.6,0-1-0.4-1-1c0-0.6,0.4-1,1-1s1,0.4,1,1C6.7,18.2,6.2,18.7,5.7,18.7L5.7,18.7z"/>
</g>
</svg>
