<svg width="190" height="190" version="1.1" viewBox="0 0 190 190" xml:space="preserve" xmlns="http://www.w3.org/2000/svg"><defs><clipPath id="clipPath18"><path d="m0 136h133.33v-136h-133.33z"/></clipPath></defs><g transform="matrix(1.3333 0 0 -1.3333 0 190)"><g transform="translate(4.5835 3.25)"><g clip-path="url(#clipPath18)"><g transform="translate(51.117 51.804)"><path d="m0 0c-18.217-4e-3 -32.986 14.753-32.998 32.97-3e-3 18.217 14.754 32.987 32.975 32.994 18.193 8e-3 32.955-14.726 32.989-32.92 0.032-18.22-14.718-33.013-32.943-33.044zm41.772 3.494c16.326 23.053 10.866 54.974-12.187 71.296-23.053 16.321-54.974 10.865-71.295-12.191-16.322-23.053-10.866-54.971 12.191-71.292 16.454-11.649 38.208-12.546 55.563-2.297l37.709-37.483c4.072-4.286 10.846-4.458 15.132-0.386 4.286 4.067 4.458 10.842 0.39 15.128-0.129 0.136-0.254 0.261-0.39 0.39z" fill="#78150d"/></g></g></g></g></svg>
