<?xml version="1.0" encoding="utf-8"?>
<!-- Generator: Adobe Illustrator 23.0.6, SVG Export Plug-In . SVG Version: 6.00 Build 0)  -->
<svg version="1.1" id="Layer_1" xmlns="http://www.w3.org/2000/svg" xmlns:xlink="http://www.w3.org/1999/xlink" x="0px" y="0px"
	 viewBox="0 0 25 25" style="enable-background:new 0 0 25 25;" xml:space="preserve">
<style type="text/css">
	.st0{fill:#EAEAEA;}
</style>
<g id="surface1">
	<path class="st0" d="M23.1,6.8L23.1,6.8c0-0.3,0-0.5,0-0.8c0-1.4-1.1-2.5-2.5-2.6c-2.9-0.2-5.1-1.1-7-2.9l0,0
		c-0.6-0.6-1.6-0.6-2.2,0l0,0c-1.9,1.9-4.1,2.8-7,2.9C3,3.5,1.9,4.6,1.9,6c0,0.3,0,0.5,0,0.8l0,0C1.8,9.7,1.8,13.4,3,16.7
		c0.7,1.8,1.7,3.4,3,4.7c1.5,1.5,3.5,2.7,5.9,3.5c0.1,0,0.2,0,0.2,0.1c0.1,0,0.2,0,0.4,0s0.2,0,0.4,0c0.1,0,0.2,0,0.2-0.1
		c2.4-0.8,4.4-2,5.9-3.5c1.3-1.3,2.3-2.9,3-4.7C23.2,13.4,23.2,9.7,23.1,6.8z M20.6,16.2c-1.3,3.5-3.9,5.9-8,7.3l0,0h-0.1l0,0
		c-4.1-1.4-6.8-3.8-8-7.3c-1.1-3.1-1.1-6.4-1-9.4l0,0c0-0.3,0-0.5,0-0.8c0-0.6,0.5-1.1,1.1-1.2c1.6-0.1,3.1-0.4,4.4-1
		s2.5-1.3,3.6-2.4c0.1,0,0.1,0,0.2,0c1.1,1.1,2.2,1.8,3.6,2.4c1.3,0.6,2.7,0.9,4.4,1c0.6,0,1.1,0.5,1.1,1.2c0,0.3,0,0.6,0,0.8
		C21.7,9.8,21.8,13.1,20.6,16.2z"/>
	<path class="st0" d="M12.5,7.3c-1.8,0-3.3,1.5-3.3,3.3c0,1.1,0.5,2.1,1.4,2.7v2.4l0,0c0,1.1,0.9,1.9,1.9,1.9c1.1,0,1.9-0.9,1.9-1.9
		v-2.4c0.9-0.6,1.4-1.6,1.4-2.7C15.8,8.8,14.3,7.3,12.5,7.3z M13,15.7c0,0.3-0.2,0.5-0.5,0.5S12,16,12,15.7V13
		c0-0.3-0.1-0.6-0.4-0.7c-0.6-0.3-1-1-1-1.6c0-1,0.8-1.9,1.9-1.9c1,0,1.9,0.8,1.9,1.9c0,0.7-0.4,1.3-1,1.6C13.1,12.4,13,12.7,13,13
		V15.7L13,15.7z"/>
</g>
</svg>
