<?xml version="1.0" encoding="utf-8"?>
<!-- Generator: Adobe Illustrator 18.0.0, SVG Export Plug-In . SVG Version: 6.00 Build 0)  -->
<!DOCTYPE svg PUBLIC "-//W3C//DTD SVG 1.1//EN" "http://www.w3.org/Graphics/SVG/1.1/DTD/svg11.dtd">
<svg version="1.1" id="Layer_1" xmlns="http://www.w3.org/2000/svg" xmlns:xlink="http://www.w3.org/1999/xlink" x="0px" y="0px"
	 viewBox="0 0 40 40" enable-background="new 0 0 40 40" xml:space="preserve">
<circle fill="#882211" cx="20" cy="20" r="20"/>
<path fill="#FFFFFF" d="M31.3,14.3C31,14,29.9,14,28.8,14.1c-1.1,0-2.2,0-2.5,0.1c-0.3,0.1-0.7,1.4-1.5,2.7
	c-0.8,1.5-1.7,2.9-2.4,2.9c-0.8,0-0.6-2.5-0.6-4.3c0-1.2-0.2-1.6-0.4-1.7c-0.4-0.3-1.6-0.6-1.6-0.6s-3.5-0.3-4,1.3
	c0.6,0.1,1.8-0.1,1.4,4.5c0,0.2-0.6,2.1-2.1-0.5c-0.4-0.6-1.9-4.5-2.5-4.5C11.1,14,9.2,14,8.7,14.3c-0.6,0.3,0.7,3,3,6.5
	c1.8,2.9,3.9,5.2,7.3,5.8c0.6,0.1,2.3,0.2,2.9-0.1c0.4-0.2-0.1-2.7,1.1-2.9c0.6-0.1,2.6,2.7,3.4,2.9c0.5,0.2,1.6,0.3,2.6,0.2
	c1.2,0,2.5,0.1,2.6-0.6c0.3-1.7-3.5-4-3.6-5.1c-0.1-0.7,1.4-2.2,2.1-3.3C30.9,16.4,31.9,14.7,31.3,14.3z"/>
</svg>
