<svg width="1360" height="270" version="1.1" viewBox="0 0 1360 270" xml:space="preserve" xmlns="http://www.w3.org/2000/svg"><defs><clipPath id="clipPath18"><path d="M 0,198.425 H 1016.819 V 0 H 0 Z"/></clipPath></defs><g transform="matrix(1.3333 0 0 -1.3333 0 270)"><g transform="translate(1.5905 2.0377)"><g clip-path="url(#clipPath18)"><g transform="translate(1016.8 152.51)"><path d="m0 0v-24.604h-26.293v-83.033h-27.218v83.033h-26.447v24.604zm-137.05-81.958h40.442v-25.679h-68.58v107.64h67.196v-24.449h-39.058v-15.377h35.983v-24.603h-35.983zm-83.272-0.614h-21.682v17.836h21.528c1.844 0 3.23-0.462 4.614-1.077 2.613-1.844 3.997-5.227 3.844-8.458-0.461-4.304-2.921-8.301-8.304-8.301m-21.682 58.584h17.377c5.689 0 8.456-4.766 8.304-9.533-0.154-4.306-2.923-8.458-8.304-8.458h-17.377zm44.441-27.216c5.379 4.305 8.917 11.994 8.917 18.606 0 19.99-13.994 33.059-33.984 33.059h-47.513v-107.48h51.82c22.141 0 34.137 14.301 34.137 32.751 0 9.842-4.615 18.607-13.377 23.067m-124.23-3.999h-19.837v30.908h19.837c7.689 0 11.686-7.535 11.686-15.224 0-7.841-4.305-15.684-11.686-15.684m0 55.357c-15.992 0.154-31.522 0-47.515 0v-107.64h28.14v27.832h19.375c25.526 0 38.595 19.682 38.595 39.364 0.462 20.297-12.762 40.441-38.595 40.441m-77.772 0.154h9.994v-107.94h-28.139v49.667l-22.911-23.988h-3.229l-22.912 23.988v-49.667h-28.139v107.94h9.995l42.748-46.592zm-129.4-82.726h13.685v-25.219h-55.509v25.219h13.684v57.2h-12.454v25.218h53.047v-25.218h-12.453zm-98.457 0.153h38.903v-25.218h-67.043v107.64h28.14zm-101.32-0.77c-13.839 0-27.063 9.996-27.063 29.216 0 19.682 13.378 29.215 27.37 29.215 13.379 0 26.756-9.994 26.756-29.215 0-19.22-13.685-29.216-27.063-29.216m0.307 85.187c-27.985 0-55.51-18.759-55.51-55.971 0-37.366 26.602-55.816 55.049-55.816 32.597 0 55.356 22.909 55.356 55.816 0 37.212-27.37 55.971-54.895 55.971" fill="#771610"/></g><g transform="translate(99.213 193.43)"><path d="m0 0c-52.035 0-94.218-42.183-94.218-94.218 0-52.034 42.183-94.218 94.218-94.218s94.218 42.184 94.218 94.218c0 52.035-42.183 94.218-94.218 94.218" fill="#771610"/></g><g transform="translate(95.266 31.708)"><path d="m0 0c-3.356-1.633-7.444-3.038-12.764-3.678l-1.051-0.127 5.516-4.579 0.225 0.059c3.965 1.009 7.586 3.402 10.897 5.989-0.654 0.534-1.298 1.068-1.927 1.594-0.301 0.25-0.598 0.495-0.896 0.742m13.824 7.843c-2.156-0.6-4.219-1.952-6.638-3.566-0.649-0.431-1.325-0.881-2.028-1.335 0.766-0.463 1.575-0.926 2.432-1.38 1.777 1.468 3.505 2.834 5.195 3.89 5.438-6.073 15.318-7.021 25.053-2.574-6.905 9.068-15.754 10.123-24.014 4.965m11.235 4.784c2.891-0.251 5.689-1.25 8.293-2.973 1.865 2.629 3.716 4.784 5.734 6.3 1.808 3.964 3.112 8.687 3.934 13.908-9.33-2.839-15.337-9.113-17.961-17.235m9.587-4.292c7.291-5.836 14.12-5.002 21.542 4.894-11.207 6.491-15.921 3.125-21.542-4.894m15.479 13.354c-0.649-0.1-1.265-0.269-1.845-0.489 0.176 3.904 2.269 8.325 5.781 12.36 0.249 3.752-0.457 8.109-2.311 13.057-8.158-7.69-8.971-15.797-5.494-25.244-0.844-1.129-1.78-2.224-2.754-3.262 1.153 0.285 2.378 0.382 3.695 0.281 1.327 0.998 2.701 1.678 4.074 2.035 11.819-2.202 17.106 2.712 24.142 23.361-14.492-2.782-24.488-14.062-25.288-22.099m5.368 13.402c0.809 0.821 1.671 1.623 2.592 2.389 0.563 1.297 1.042 2.674 1.394 4.106 4.071 6.286 2.284 14.449-4.448 25.286-4.989-11.276-2.803-21.924 2.105-26.126-0.5-1.292-1.1-2.499-1.74-3.6 0.06-0.7 0.092-1.384 0.097-2.055m22.376 43.863c-9.978-11.433-9.743-21.853-6.716-30.757-1.101-0.937-2.08-1.44-3.041-1.93-0.195-0.101-0.393-0.202-0.591-0.306 0.528 1.078 1.006 2.188 1.39 3.318-0.499 1.698-0.861 3.362-1.098 4.997-0.626-5.653-3.96-11.256-6.799-14.586 1.618 1.101 3.36 2.1 5.2 2.971 1.021 0.849 2.083 1.559 3.129 2.241 1.151 0.753 2.274 1.493 3.283 2.385 6.681 1.918 12.05 16.538 5.243 31.667m-21.726 5.736c1.737-18.232 3.149-22.61 11.508-29.266-0.544 5.023 0.177 9.792 2.17 14.429-1.911 4.875-6.204 9.541-13.678 14.837m9.812-5.895c1.499-1.583 2.743-3.168 3.738-4.776 7.181 5.169 7.577 16.136 2.006 27.8-7.064-9.685-8.005-16.649-5.744-23.024m-1.405 16.084c-0.027-0.686 3e-3 -1.359 0.08-2.026 0.626 1.696 1.469 3.484 2.554 5.373 1.928 7.623-1.071 16.623-14.358 21.593 2.183-13.432 3.71-18.368 11.724-24.94m-2.235-8.83c0.302-0.345 0.551-0.678 0.781-1.007 0.015 1.334 0.169 2.737 0.484 4.212-0.014 1.764-0.347 3.386-0.956 4.867-2.767 2.365-4.754 4.607-6.264 7.064-3.15 2.016-7.09 3.416-11.331 4.211 1.152-11.715 8.808-19.253 17.286-19.347m-13.911 23.997c2.08-2.311 4.482-4.528 6.554-6.244-0.543 1.186-1.006 2.452-1.423 3.81-1.126 0.899-2.293 1.947-3.408 3.059 3.41 8.007-1.116 15.611-11.325 23.265-2.094-10.791 0.46-21.623 9.602-23.89m-26.002 18.87c4.998 0.37 9.217-0.416 12.304-2.355 0.599-0.376 1.129-0.81 1.632-1.265-0.085 1.586-0.048 3.238 0.104 4.938-3.751 4.715-10.652 7.197-20.536 7.181 1.812-3.722 3.982-6.492 6.496-8.499m15.606-11.602c-0.606 1.504-1.054 3.151-1.339 4.912-3.914 5.7-13.157 6.192-23.612 2.995 6.429-9.067 15.191-11.017 24.951-7.907m-2.043-1.387c0.965 3e-3 1.873-0.049 2.732-0.143 0.364-0.71 0.766-1.382 1.21-2.008 2.101-2.965 4.968-4.837 8.517-5.598-5.59-0.39-9.746 1.516-12.459 7.749" fill="#fcc341"/></g><g transform="translate(116.19 27.827)"><path d="m0 0c-9.994 1.203-15.631 4.845-20.161 7.771-1.919 1.24-3.689 2.37-5.539 3.169-8.509 5.806-17.749 5.01-24.903-4.382 9.653-4.412 19.453-3.524 24.92 2.411 1.918-1.262 3.908-2.861 5.964-4.524 4.454-3.602 9.502-7.685 15.029-9.092l0.225-0.058 5.516 4.579zm-37.538 16.422c-2.274 7.899-7.81 14.221-16.658 17.514 0.215-9.242 2.614-16.696 6.725-21.532 3.074 2.442 6.436 3.784 9.933 4.018m-22.013 7.321c2.204-3.398 5.352-6.442 7.949-8.706-0.932 1.73-1.746 3.647-2.415 5.792-1.383 1.469-2.694 3.03-3.838 4.618 3.086 8.696 2.162 16.36-5.321 23.85-4.911-11.997-2.88-20.693 3.625-25.554m-4.131 0.432c0.411-0.106 0.826-0.238 1.241-0.386-3.375 3.233-5.146 7.48-5.291 12.515-4.546 5.909-12.094 11.227-21.872 12.397 7.521-22.028 13.147-27.063 25.922-24.526m-3.958 47.118c-10.894-12.242-9.496-20.945-4.128-27.707 0.1-0.308 0.204-0.612 0.314-0.914 1.39-1.168 2.645-2.416 3.776-3.704 0.023 0.291 0.07 0.594 0.103 0.889-0.742 1.17-1.454 2.484-2.055 3.906 5.405 4.594 9.619 15.916 1.99 27.53m-17.74-20.331c0.806-0.712 1.681-1.329 2.588-1.931 2.743-0.91 5.274-2.135 7.561-3.588-0.711 1.243-1.27 2.499-1.672 3.776-1.761 3.167-3.173 6.69-3.494 10.053-0.185-1.8-0.548-3.638-1.056-5.51 0.529-1.558 1.238-3.115 2.051-4.619-0.502 0.302-0.991 0.554-1.473 0.8-0.962 0.492-1.941 0.995-3.042 1.932 3.027 8.902 3.262 19.323-6.715 30.758-6.812-15.138-1.433-29.764 5.252-31.671m16.473 38.25c-7.701-5.458-12.023-10.246-13.843-15.282 2.002-4.486 2.785-9.093 2.404-13.931 8.3 6.627 9.707 11.03 11.439 29.213m-12.832-2.94c-0.512-1.141-0.995-2.218-1.4-3.328-0.699-1.92-1.232-3.632-1.647-5.16 0.73-1.198 1.366-2.401 1.919-3.615 0.388 1.99 0.944 4.387 1.732 7.077 0.995 2.233 2.407 3.808 3.288 5.146 0.746 1.131 1.502 2.217 2.595 3.335 8.546-8e-3 16.299 7.552 17.459 19.347-10.901-2.045-19.82-8.07-18.409-18.355-0.557-0.696-1.069-1.432-1.588-2.181-0.569-0.822-1.15-1.657-1.812-2.465 1.472 4.505 2.817 8.86 2.712 12.835l0.016 0.013c0.35 0.773 0.754 1.528 1.246 2.252 1.276 1.885 3.035 3.558 5.191 4.993 2.437 4.158 3.522 9.179 4.847 17.331-15.492-5.796-16.997-17.066-13.014-25.248-0.092-5.168-1.685-8.741-3.135-11.977m15.489 25.057c-0.376-1.249-0.802-2.396-1.28-3.491 0.17 0.084 0.347 0.162 0.52 0.243 1.898 1.618 3.997 3.595 5.843 5.644 9.141 2.266 11.695 13.097 9.602 23.888-10.21-7.653-14.736-15.259-11.327-23.262-1.098-1.099-2.247-2.132-3.358-3.022m39.339 30.079c-10.689-0.476-18.135-3.421-22.216-8.54 0.15-2.439 0.048-4.768-0.3-6.93 10.273 0.435 17.833 4.603 22.516 15.47m-17.436-21.322 1.891-0.378c5.599 0.563 10.602 3.452 14.671 9.19-1.615 0.495-3.202 0.901-4.745 1.212-4.37-3.849-10.011-5.763-17.255-5.998-0.288-1.219-0.663-2.373-1.12-3.45 1.921 0.073 4.078-0.079 6.558-0.576m-0.357-1.785c-2.645 0.527-5.021 0.682-7.129 0.487-0.264-0.462-0.538-0.912-0.837-1.334-2.162-3.049-5.132-4.938-8.819-5.656 6.604-1.72 12.047-0.351 16.785 6.503m-5.001-107.39c-0.164 0.179-0.972 0.832-1.686 1.409-2.216 1.792-6.033 5.703-8.261 8.465l-0.488 0.606c-2.86 0.23-6.174-0.488-10.176-2.443 3.955-9.445 13.633-12.25 20.838-8.286zm-35.938 68.876c-4.907 5.709-4.637 15.44 0.269 25.712 2.461-3.374 4.173-6.416 5.272-9.219-0.414-3.918-1.718-6.848-2.923-9.538-0.519-1.157-1.01-2.25-1.425-3.389-0.465-1.276-0.858-2.462-1.193-3.566" fill="#fcc341"/></g><g transform="translate(99.213 10.729)"><path d="m0 0c-48.868 0-88.483 39.615-88.483 88.483 0 48.869 39.615 88.484 88.483 88.484s88.483-39.615 88.483-88.484c0-48.868-39.615-88.483-88.483-88.483m0 187.7c-54.793 0-99.213-44.42-99.213-99.213 0-54.794 44.42-99.212 99.213-99.212s99.212 44.418 99.212 99.212c0 54.793-44.419 99.213-99.212 99.213" fill="#fcc341"/></g></g></g></g></svg>
